<svg xmlns="http://www.w3.org/2000/svg" xmlns:xlink="http://www.w3.org/1999/xlink" width="500" zoomAndPan="magnify" viewBox="0 0 375 80.999996" height="108" preserveAspectRatio="xMidYMid meet" version="1.0"><defs><g/></defs><g fill="#000000" fill-opacity="1"><g transform="translate(2.182568, 60.385444)"><g><path d="M 17.953125 11.90625 L 14.859375 7.21875 C 14.992188 7.039062 15.175781 6.8125 15.40625 6.53125 C 15.644531 6.257812 16.128906 5.742188 16.859375 4.984375 C 17.585938 4.234375 18.296875 3.570312 18.984375 3 C 19.679688 2.425781 20.488281 1.90625 21.40625 1.4375 C 22.320312 0.976562 23.171875 0.75 23.953125 0.75 L 23.953125 0.484375 C 17.253906 -0.796875 11.847656 -4.097656 7.734375 -9.421875 C 3.628906 -14.742188 1.578125 -21.078125 1.578125 -28.421875 C 1.578125 -36.679688 4.328125 -43.640625 9.828125 -49.296875 C 15.335938 -54.960938 22.015625 -57.796875 29.859375 -57.796875 C 37.753906 -57.796875 44.429688 -54.960938 49.890625 -49.296875 C 55.347656 -43.640625 58.078125 -36.679688 58.078125 -28.421875 C 58.078125 -21.671875 56.265625 -15.726562 52.640625 -10.59375 C 49.015625 -5.457031 44.242188 -1.992188 38.328125 -0.203125 L 38.328125 0.0625 C 38.597656 0.0625 39.8125 0.28125 41.96875 0.71875 C 44.125 1.15625 45.847656 1.375 47.140625 1.375 C 48.878906 1.375 50.457031 1.0625 51.875 0.4375 C 53.300781 -0.175781 54.289062 -0.78125 54.84375 -1.375 L 55.671875 -2.34375 L 59.734375 6.40625 C 59.640625 6.632812 59.488281 6.921875 59.28125 7.265625 C 59.070312 7.609375 58.597656 8.210938 57.859375 9.078125 C 57.128906 9.953125 56.316406 10.734375 55.421875 11.421875 C 54.535156 12.109375 53.34375 12.726562 51.84375 13.28125 C 50.351562 13.832031 48.757812 14.109375 47.0625 14.109375 C 44.269531 14.109375 40.851562 13.210938 36.8125 11.421875 C 32.78125 9.628906 29.296875 8.734375 26.359375 8.734375 C 24.753906 8.734375 23.25 9 21.84375 9.53125 C 20.445312 10.0625 19.453125 10.597656 18.859375 11.140625 Z M 15.546875 -28.421875 C 15.546875 -26.210938 15.796875 -24.15625 16.296875 -22.25 C 16.804688 -20.351562 17.597656 -18.625 18.671875 -17.0625 C 19.753906 -15.5 21.25 -14.269531 23.15625 -13.375 C 25.0625 -12.488281 27.296875 -12.046875 29.859375 -12.046875 C 34.679688 -12.046875 38.257812 -13.601562 40.59375 -16.71875 C 42.9375 -19.84375 44.109375 -23.742188 44.109375 -28.421875 C 44.109375 -33.054688 42.914062 -36.941406 40.53125 -40.078125 C 38.144531 -43.222656 34.585938 -44.796875 29.859375 -44.796875 C 25.179688 -44.796875 21.625 -43.210938 19.1875 -40.046875 C 16.757812 -36.878906 15.546875 -33.003906 15.546875 -28.421875 Z M 15.546875 -28.421875 "/></g></g></g><g fill="#000000" fill-opacity="1"><g transform="translate(55.363848, 60.385444)"><g><path d="M 15.625 -35.296875 L 15.625 -18.515625 C 15.625 -15.023438 16.148438 -12.546875 17.203125 -11.078125 C 18.253906 -9.609375 20.039062 -8.875 22.5625 -8.875 C 25.09375 -8.875 26.882812 -9.609375 27.9375 -11.078125 C 28.988281 -12.546875 29.515625 -15.023438 29.515625 -18.515625 L 29.515625 -35.296875 L 41.703125 -35.296875 L 41.703125 -15.546875 C 41.703125 -9.679688 40.175781 -5.453125 37.125 -2.859375 C 34.070312 -0.265625 29.21875 1.03125 22.5625 1.03125 C 15.914062 1.03125 11.066406 -0.265625 8.015625 -2.859375 C 4.960938 -5.453125 3.4375 -9.679688 3.4375 -15.546875 L 3.4375 -35.296875 Z M 15.625 -35.296875 "/></g></g></g><g fill="#000000" fill-opacity="1"><g transform="translate(94.028124, 60.385444)"><g><path d="M 39.84375 -15.96875 L 14.25 -15.96875 C 14.25 -13.488281 15.050781 -11.648438 16.65625 -10.453125 C 18.257812 -9.265625 20 -8.671875 21.875 -8.671875 C 23.851562 -8.671875 25.414062 -8.929688 26.5625 -9.453125 C 27.707031 -9.984375 29.015625 -11.03125 30.484375 -12.59375 L 39.296875 -8.1875 C 35.617188 -2.039062 29.515625 1.03125 20.984375 1.03125 C 15.660156 1.03125 11.09375 -0.789062 7.28125 -4.4375 C 3.476562 -8.082031 1.578125 -12.472656 1.578125 -17.609375 C 1.578125 -22.753906 3.476562 -27.160156 7.28125 -30.828125 C 11.09375 -34.492188 15.660156 -36.328125 20.984375 -36.328125 C 26.585938 -36.328125 31.140625 -34.707031 34.640625 -31.46875 C 38.148438 -28.238281 39.90625 -23.617188 39.90625 -17.609375 C 39.90625 -16.785156 39.882812 -16.238281 39.84375 -15.96875 Z M 14.59375 -22.703125 L 28 -22.703125 C 27.726562 -24.535156 27.003906 -25.945312 25.828125 -26.9375 C 24.660156 -27.925781 23.160156 -28.421875 21.328125 -28.421875 C 19.304688 -28.421875 17.695312 -27.890625 16.5 -26.828125 C 15.3125 -25.773438 14.675781 -24.398438 14.59375 -22.703125 Z M 14.59375 -22.703125 "/></g></g></g><g fill="#000000" fill-opacity="1"><g transform="translate(129.045941, 60.385444)"><g><path d="M 4.125 0 L 4.125 -35.296875 L 16.3125 -35.296875 L 16.3125 -30.203125 L 16.453125 -30.203125 C 16.535156 -30.390625 16.679688 -30.617188 16.890625 -30.890625 C 17.097656 -31.171875 17.546875 -31.65625 18.234375 -32.34375 C 18.921875 -33.03125 19.65625 -33.648438 20.4375 -34.203125 C 21.21875 -34.753906 22.226562 -35.242188 23.46875 -35.671875 C 24.707031 -36.109375 25.96875 -36.328125 27.25 -36.328125 C 28.582031 -36.328125 29.890625 -36.144531 31.171875 -35.78125 C 32.453125 -35.414062 33.394531 -35.050781 34 -34.6875 L 34.953125 -34.125 L 29.859375 -23.8125 C 28.347656 -25.09375 26.238281 -25.734375 23.53125 -25.734375 C 22.0625 -25.734375 20.800781 -25.410156 19.75 -24.765625 C 18.695312 -24.128906 17.953125 -23.351562 17.515625 -22.4375 C 17.078125 -21.519531 16.765625 -20.738281 16.578125 -20.09375 C 16.398438 -19.445312 16.3125 -18.941406 16.3125 -18.578125 L 16.3125 0 Z M 4.125 0 "/></g></g></g><g fill="#000000" fill-opacity="1"><g transform="translate(156.839656, 60.385444)"><g><path d="M 30.890625 -35.296875 L 44.9375 -35.296875 L 17.203125 17.890625 L 3.171875 17.890625 L 15.34375 -5.5 L -1.375 -35.296875 L 12.65625 -35.296875 L 22.5 -17.203125 Z M 30.890625 -35.296875 "/></g></g></g><g fill="#000000" fill-opacity="1"><g transform="translate(193.921498, 60.385444)"><g><path d="M 51.0625 0 L 48.375 -33.65625 L 48.03125 -33.65625 L 36.40625 -0.34375 L 28.6875 -0.34375 L 17.0625 -33.65625 L 16.71875 -33.65625 L 14.03125 0 L 1.09375 0 L 6.1875 -56.765625 L 19.953125 -56.765625 L 32.546875 -24.015625 L 45.140625 -56.765625 L 58.90625 -56.765625 L 64 0 Z M 51.0625 0 "/></g></g></g><g fill="#000000" fill-opacity="1"><g transform="translate(252.538067, 60.385444)"><g><path d="M 6.53125 -4.359375 C 3.226562 -7.960938 1.578125 -12.378906 1.578125 -17.609375 C 1.578125 -22.835938 3.226562 -27.265625 6.53125 -30.890625 C 9.832031 -34.515625 14.03125 -36.328125 19.125 -36.328125 C 23.8125 -36.328125 27.664062 -34.859375 30.6875 -31.921875 L 30.6875 -35.296875 L 42.875 -35.296875 L 42.875 0 L 30.828125 0 L 30.828125 -3.984375 L 30.6875 -3.984375 C 27.664062 -0.640625 23.8125 1.03125 19.125 1.03125 C 14.03125 1.03125 9.832031 -0.765625 6.53125 -4.359375 Z M 16.890625 -23.59375 C 15.304688 -22.039062 14.515625 -20.046875 14.515625 -17.609375 C 14.515625 -15.179688 15.269531 -13.195312 16.78125 -11.65625 C 18.300781 -10.125 20.300781 -9.359375 22.78125 -9.359375 C 25.164062 -9.359375 27.125 -10.132812 28.65625 -11.6875 C 30.195312 -13.25 30.96875 -15.222656 30.96875 -17.609375 C 30.96875 -20.046875 30.175781 -22.039062 28.59375 -23.59375 C 27.007812 -25.15625 25.070312 -25.9375 22.78125 -25.9375 C 20.4375 -25.9375 18.472656 -25.15625 16.890625 -23.59375 Z M 16.890625 -23.59375 "/></g></g></g><g fill="#000000" fill-opacity="1"><g transform="translate(293.059959, 60.385444)"><g><path d="M 6.1875 -35.296875 L 6.1875 -48.4375 L 18.375 -48.4375 L 18.375 -35.296875 L 25.8125 -35.296875 L 25.8125 -26.015625 L 18.375 -26.015625 L 18.375 -14.796875 C 18.375 -11.535156 19.289062 -9.90625 21.125 -9.90625 C 21.582031 -9.90625 22.0625 -9.992188 22.5625 -10.171875 C 23.070312 -10.359375 23.460938 -10.546875 23.734375 -10.734375 L 24.15625 -11.015625 L 27.1875 -1.171875 C 24.570312 0.296875 21.585938 1.03125 18.234375 1.03125 C 15.941406 1.03125 13.96875 0.628906 12.3125 -0.171875 C 10.664062 -0.972656 9.414062 -2.050781 8.5625 -3.40625 C 7.71875 -4.757812 7.109375 -6.179688 6.734375 -7.671875 C 6.367188 -9.160156 6.1875 -10.753906 6.1875 -12.453125 L 6.1875 -26.015625 L 1.09375 -26.015625 L 1.09375 -35.296875 Z M 6.1875 -35.296875 "/></g></g></g><g fill="#000000" fill-opacity="1"><g transform="translate(313.767158, 60.385444)"><g><path d="M 39.84375 -15.96875 L 14.25 -15.96875 C 14.25 -13.488281 15.050781 -11.648438 16.65625 -10.453125 C 18.257812 -9.265625 20 -8.671875 21.875 -8.671875 C 23.851562 -8.671875 25.414062 -8.929688 26.5625 -9.453125 C 27.707031 -9.984375 29.015625 -11.03125 30.484375 -12.59375 L 39.296875 -8.1875 C 35.617188 -2.039062 29.515625 1.03125 20.984375 1.03125 C 15.660156 1.03125 11.09375 -0.789062 7.28125 -4.4375 C 3.476562 -8.082031 1.578125 -12.472656 1.578125 -17.609375 C 1.578125 -22.753906 3.476562 -27.160156 7.28125 -30.828125 C 11.09375 -34.492188 15.660156 -36.328125 20.984375 -36.328125 C 26.585938 -36.328125 31.140625 -34.707031 34.640625 -31.46875 C 38.148438 -28.238281 39.90625 -23.617188 39.90625 -17.609375 C 39.90625 -16.785156 39.882812 -16.238281 39.84375 -15.96875 Z M 14.59375 -22.703125 L 28 -22.703125 C 27.726562 -24.535156 27.003906 -25.945312 25.828125 -26.9375 C 24.660156 -27.925781 23.160156 -28.421875 21.328125 -28.421875 C 19.304688 -28.421875 17.695312 -27.890625 16.5 -26.828125 C 15.3125 -25.773438 14.675781 -24.398438 14.59375 -22.703125 Z M 14.59375 -22.703125 "/></g></g></g><g fill="#000000" fill-opacity="1"><g transform="translate(348.784981, 60.385444)"><g><path d="M 11.96875 -14.71875 C 14.175781 -14.71875 16.046875 -13.945312 17.578125 -12.40625 C 19.117188 -10.875 19.890625 -9.007812 19.890625 -6.8125 C 19.890625 -4.65625 19.117188 -2.804688 17.578125 -1.265625 C 16.046875 0.265625 14.175781 1.03125 11.96875 1.03125 C 9.8125 1.03125 7.960938 0.265625 6.421875 -1.265625 C 4.890625 -2.804688 4.125 -4.65625 4.125 -6.8125 C 4.125 -9.007812 4.890625 -10.875 6.421875 -12.40625 C 7.960938 -13.945312 9.8125 -14.71875 11.96875 -14.71875 Z M 11.96875 -14.71875 "/></g></g></g></svg>