<svg xmlns="http://www.w3.org/2000/svg" xmlns:xlink="http://www.w3.org/1999/xlink" width="500" zoomAndPan="magnify" viewBox="0 0 375 374.999991" height="500" preserveAspectRatio="xMidYMid meet" version="1.0"><defs><clipPath id="0f253197eb"><path d="M 43.285156 121 L 247 121 L 247 330 L 43.285156 330 Z M 43.285156 121 " clip-rule="nonzero"/></clipPath></defs><path fill="#f1efe7" d="M 209.386719 121.25 L 156.578125 121.25 C 154.636719 121.25 153.066406 122.816406 153.066406 124.757812 C 153.066406 126.695312 154.636719 128.265625 156.578125 128.265625 L 209.386719 128.265625 C 225.820312 128.265625 239.191406 141.636719 239.191406 158.070312 L 239.191406 222.359375 C 239.191406 224.296875 240.761719 225.867188 242.699219 225.867188 C 244.640625 225.867188 246.207031 224.296875 246.207031 222.359375 L 246.207031 158.070312 C 246.207031 137.769531 229.691406 121.25 209.386719 121.25 Z M 209.386719 121.25 " fill-opacity="1" fill-rule="nonzero"/><g clip-path="url(#0f253197eb)"><path fill="#f1efe7" d="M 80.109375 290.105469 L 96.785156 290.105469 L 84.398438 324.6875 C 83.902344 326.066406 84.324219 327.613281 85.449219 328.558594 C 86.097656 329.101562 86.898438 329.378906 87.703125 329.378906 C 88.304688 329.378906 88.902344 329.222656 89.449219 328.914062 L 157.253906 290.105469 L 209.386719 290.105469 C 229.691406 290.105469 246.207031 273.585938 246.207031 253.285156 L 246.207031 249.417969 C 246.207031 247.480469 244.640625 245.910156 242.699219 245.910156 C 240.761719 245.910156 239.191406 247.480469 239.191406 249.417969 L 239.191406 253.285156 C 239.191406 269.71875 225.820312 283.089844 209.386719 283.089844 L 156.324219 283.089844 C 155.714844 283.089844 155.109375 283.25 154.582031 283.550781 L 94.210938 318.101562 L 105.070312 287.777344 C 105.453125 286.707031 105.292969 285.511719 104.632812 284.574219 C 103.976562 283.644531 102.90625 283.089844 101.765625 283.089844 L 80.109375 283.089844 C 63.671875 283.089844 50.300781 269.71875 50.300781 253.285156 L 50.300781 158.070312 C 50.300781 141.636719 63.671875 128.265625 80.109375 128.265625 L 129.042969 128.265625 C 130.980469 128.265625 132.550781 126.695312 132.550781 124.757812 C 132.550781 122.816406 130.980469 121.25 129.042969 121.25 L 80.109375 121.25 C 59.804688 121.25 43.285156 137.769531 43.285156 158.070312 L 43.285156 253.285156 C 43.285156 273.585938 59.804688 290.105469 80.109375 290.105469 Z M 80.109375 290.105469 " fill-opacity="1" fill-rule="nonzero"/></g><path fill="#f1efe7" d="M 253.488281 50.941406 C 228.546875 45.410156 202.945312 49.925781 181.40625 63.652344 C 159.859375 77.378906 144.949219 98.671875 139.421875 123.609375 C 133.890625 148.550781 138.40625 174.152344 152.128906 195.695312 C 173.023438 228.492188 212.464844 245.492188 250.566406 238.277344 L 294.234375 263.261719 C 294.777344 263.570312 295.378906 263.722656 295.976562 263.722656 C 296.785156 263.722656 297.585938 263.445312 298.230469 262.90625 C 299.355469 261.960938 299.773438 260.414062 299.277344 259.035156 L 286.523438 223.421875 C 306.804688 209.671875 320.832031 189.03125 326.15625 165.003906 C 331.6875 140.066406 327.171875 114.46875 313.445312 92.925781 C 299.71875 71.378906 278.425781 56.46875 253.488281 50.941406 Z M 319.308594 163.488281 C 314.183594 186.601562 300.367188 206.328125 280.40625 219.046875 C 279.019531 219.925781 278.433594 221.648438 278.988281 223.1875 L 289.464844 252.449219 L 252.917969 231.535156 C 252.382812 231.230469 251.785156 231.074219 251.175781 231.074219 C 250.945312 231.074219 250.710938 231.097656 250.476562 231.144531 C 214.800781 238.410156 177.628906 222.660156 158.050781 191.925781 C 145.332031 171.960938 141.148438 148.238281 146.269531 125.132812 C 151.394531 102.019531 165.210938 82.289062 185.175781 69.574219 C 205.136719 56.851562 228.855469 52.679688 251.964844 57.792969 C 275.074219 62.914062 294.804688 76.730469 307.523438 96.695312 C 320.242188 116.65625 324.429688 140.378906 319.308594 163.488281 Z M 319.308594 163.488281 " fill-opacity="1" fill-rule="nonzero"/></svg>