<svg xmlns="http://www.w3.org/2000/svg" xmlns:xlink="http://www.w3.org/1999/xlink" width="500" zoomAndPan="magnify" viewBox="0 0 375 374.999991" height="500" preserveAspectRatio="xMidYMid meet" version="1.0"><defs><clipPath id="51cd375b5e"><path d="M 43.285156 121 L 247 121 L 247 330 L 43.285156 330 Z M 43.285156 121 " clip-rule="nonzero"/></clipPath></defs><path fill="#000000" d="M 209.574219 121.296875 L 156.707031 121.296875 C 154.765625 121.296875 153.191406 122.867188 153.191406 124.808594 C 153.191406 126.746094 154.765625 128.316406 156.707031 128.316406 L 209.574219 128.316406 C 226.027344 128.316406 239.414062 141.695312 239.414062 158.140625 L 239.414062 222.46875 C 239.414062 224.410156 240.984375 225.980469 242.925781 225.980469 C 244.867188 225.980469 246.4375 224.410156 246.4375 222.46875 L 246.4375 158.140625 C 246.441406 137.824219 229.90625 121.296875 209.574219 121.296875 Z M 209.574219 121.296875 " fill-opacity="1" fill-rule="nonzero"/><g clip-path="url(#51cd375b5e)"><path fill="#000000" d="M 80.152344 290.257812 L 96.84375 290.257812 L 84.445312 324.859375 C 83.949219 326.242188 84.371094 327.785156 85.496094 328.734375 C 86.144531 329.273438 86.949219 329.550781 87.753906 329.550781 C 88.355469 329.550781 88.953125 329.398438 89.5 329.089844 L 157.386719 290.257812 L 209.574219 290.257812 C 229.90625 290.257812 246.4375 273.726562 246.4375 253.414062 L 246.4375 249.542969 C 246.4375 247.605469 244.867188 246.035156 242.925781 246.035156 C 240.984375 246.035156 239.414062 247.605469 239.414062 249.542969 L 239.414062 253.414062 C 239.414062 269.855469 226.027344 283.234375 209.574219 283.234375 L 156.453125 283.234375 C 155.839844 283.234375 155.238281 283.394531 154.710938 283.699219 L 94.269531 318.269531 L 105.140625 287.929688 C 105.523438 286.855469 105.363281 285.660156 104.703125 284.722656 C 104.046875 283.789062 102.976562 283.234375 101.832031 283.234375 L 80.152344 283.234375 C 63.695312 283.234375 50.3125 269.855469 50.3125 253.414062 L 50.3125 158.140625 C 50.3125 141.695312 63.695312 128.316406 80.152344 128.316406 L 129.140625 128.316406 C 131.082031 128.316406 132.652344 126.746094 132.652344 124.808594 C 132.652344 122.867188 131.082031 121.296875 129.140625 121.296875 L 80.152344 121.296875 C 59.824219 121.296875 43.285156 137.824219 43.285156 158.140625 L 43.285156 253.414062 C 43.285156 273.726562 59.824219 290.257812 80.152344 290.257812 Z M 80.152344 290.257812 " fill-opacity="1" fill-rule="nonzero"/></g><path fill="#000000" d="M 253.726562 50.945312 C 228.757812 45.410156 203.125 49.929688 181.5625 63.664062 C 159.992188 77.398438 145.066406 98.703125 139.53125 123.660156 C 133.992188 148.617188 138.515625 174.230469 152.253906 195.785156 C 173.171875 228.605469 212.65625 245.617188 250.804688 238.394531 L 294.519531 263.398438 C 295.0625 263.707031 295.667969 263.859375 296.261719 263.859375 C 297.074219 263.859375 297.875 263.582031 298.519531 263.039062 C 299.644531 262.09375 300.0625 260.546875 299.570312 259.164062 L 286.800781 223.53125 C 307.101562 209.773438 321.148438 189.117188 326.480469 165.078125 C 332.015625 140.125 327.492188 114.511719 313.75 92.953125 C 300.007812 71.394531 278.691406 56.476562 253.726562 50.945312 Z M 319.625 163.5625 C 314.492188 186.6875 300.660156 206.429688 280.675781 219.152344 C 279.289062 220.035156 278.699219 221.753906 279.253906 223.296875 L 289.746094 252.574219 L 253.15625 231.652344 C 252.621094 231.34375 252.023438 231.1875 251.414062 231.1875 C 251.179688 231.1875 250.945312 231.210938 250.714844 231.257812 C 214.996094 238.527344 177.78125 222.769531 158.179688 192.015625 C 145.445312 172.039062 141.257812 148.304688 146.386719 125.179688 C 151.519531 102.054688 165.351562 82.3125 185.335938 69.589844 C 205.320312 56.859375 229.066406 52.683594 252.203125 57.800781 C 275.335938 62.925781 295.089844 76.75 307.824219 96.726562 C 320.558594 116.703125 324.75 140.4375 319.625 163.5625 Z M 319.625 163.5625 " fill-opacity="1" fill-rule="nonzero"/></svg>